<svg xmlns="http://www.w3.org/2000/svg" viewBox="0 0 360 504" width="360" height="504"><defs><linearGradient id="backbg" x1="0" y1="0" x2="0" y2="1"><stop offset="0" stop-color="#8ed24f"/><stop offset="1" stop-color="#3f8f2e"/></linearGradient><filter id="bs" x="-30%" y="-30%" width="160%" height="160%"><feDropShadow dx="0" dy="4" stdDeviation="6" flood-color="#000000" flood-opacity="0.25"/></filter><clipPath id="backclip"><rect x="24.00" y="24.00" width="312.00" height="456.00" rx="18.00" ry="18.00" fill="#000"/></clipPath></defs><g filter="url(#bs)"><rect x="8.00" y="8.00" width="344.00" height="488.00" rx="26.00" ry="26.00" fill="#ffffff"/></g><rect x="24.00" y="24.00" width="312.00" height="456.00" rx="18.00" ry="18.00" fill="url(#backbg)"/><g clip-path="url(#backclip)"><path d="M -37.30,339.05 C -8.82,328.68 52.02,372.38 81.49,399.57 C 110.97,426.75 145.68,474.64 139.56,502.14 C 133.44,529.64 80.17,551.03 44.78,564.57 C 9.39,578.12 -50.41,600.55 -72.78,583.42 C -95.14,566.28 -95.32,502.50 -89.40,461.77 C -83.49,421.04 -65.79,349.41 -37.30,339.05 Z" fill="#2f7d22" opacity="0.5"/><path d="M -4.98,301.46 C 31.09,288.33 108.15,343.69 145.49,378.12 C 182.83,412.55 226.80,473.21 219.05,508.04 C 211.30,542.88 143.82,569.97 98.99,587.12 C 54.16,604.28 -21.59,632.70 -49.92,610.99 C -78.24,589.29 -78.47,508.49 -70.98,456.90 C -63.49,405.32 -41.06,314.59 -4.98,301.46 Z" fill="#2f7d22" opacity="0.5"/><path d="M 27.34,263.87 C 71.01,247.97 164.29,314.99 209.49,356.67 C 254.69,398.35 307.91,471.78 298.53,513.95 C 289.15,556.12 207.46,588.91 153.20,609.68 C 98.93,630.45 7.24,664.84 -27.06,638.57 C -61.35,612.30 -61.62,514.49 -52.55,452.04 C -43.49,389.59 -16.34,279.77 27.34,263.87 Z" fill="#2f7d22" opacity="0.5"/><path d="M 100.70,339.05 C 129.18,328.68 190.02,372.38 219.49,399.57 C 248.97,426.75 283.68,474.64 277.56,502.14 C 271.44,529.64 218.17,551.03 182.78,564.57 C 147.39,578.12 87.59,600.55 65.22,583.42 C 42.86,566.28 42.68,502.50 48.60,461.77 C 54.51,421.04 72.21,349.41 100.70,339.05 Z" fill="#2f7d22" opacity="0.5"/><path d="M 133.02,301.46 C 169.09,288.33 246.15,343.69 283.49,378.12 C 320.83,412.55 364.80,473.21 357.05,508.04 C 349.30,542.88 281.82,569.97 236.99,587.12 C 192.16,604.28 116.41,632.70 88.08,610.99 C 59.76,589.29 59.53,508.49 67.02,456.90 C 74.51,405.32 96.94,314.59 133.02,301.46 Z" fill="#2f7d22" opacity="0.5"/><path d="M 165.34,263.87 C 209.01,247.97 302.29,314.99 347.49,356.67 C 392.69,398.35 445.91,471.78 436.53,513.95 C 427.15,556.12 345.46,588.91 291.20,609.68 C 236.93,630.45 145.24,664.84 110.94,638.57 C 76.65,612.30 76.38,514.49 85.45,452.04 C 94.51,389.59 121.66,279.77 165.34,263.87 Z" fill="#2f7d22" opacity="0.5"/><path d="M 238.70,339.05 C 267.18,328.68 328.02,372.38 357.49,399.57 C 386.97,426.75 421.68,474.64 415.56,502.14 C 409.44,529.64 356.17,551.03 320.78,564.57 C 285.39,578.12 225.59,600.55 203.22,583.42 C 180.86,566.28 180.68,502.50 186.60,461.77 C 192.51,421.04 210.21,349.41 238.70,339.05 Z" fill="#2f7d22" opacity="0.5"/><path d="M 271.02,301.46 C 307.09,288.33 384.15,343.69 421.49,378.12 C 458.83,412.55 502.80,473.21 495.05,508.04 C 487.30,542.88 419.82,569.97 374.99,587.12 C 330.16,604.28 254.41,632.70 226.08,610.99 C 197.76,589.29 197.53,508.49 205.02,456.90 C 212.51,405.32 234.94,314.59 271.02,301.46 Z" fill="#2f7d22" opacity="0.5"/><g opacity="0.4"><ellipse cx="80.00" cy="125.00" rx="7.00" ry="6.00" fill="#2f7d22"/><circle cx="72.30" cy="118.00" r="3.00" fill="#2f7d22"/><circle cx="77.20" cy="114.00" r="3.00" fill="#2f7d22"/><circle cx="82.80" cy="114.00" r="3.00" fill="#2f7d22"/><circle cx="87.70" cy="118.00" r="3.00" fill="#2f7d22"/></g><g opacity="0.4"><ellipse cx="270.00" cy="95.00" rx="5.60" ry="4.80" fill="#2f7d22"/><circle cx="263.84" cy="89.00" r="2.40" fill="#2f7d22"/><circle cx="267.76" cy="85.00" r="2.40" fill="#2f7d22"/><circle cx="272.24" cy="85.00" r="2.40" fill="#2f7d22"/><circle cx="276.16" cy="89.00" r="2.40" fill="#2f7d22"/></g><g opacity="0.4"><ellipse cx="300.00" cy="225.00" rx="7.70" ry="6.60" fill="#2f7d22"/><circle cx="291.53" cy="217.50" r="3.30" fill="#2f7d22"/><circle cx="296.92" cy="213.50" r="3.30" fill="#2f7d22"/><circle cx="303.08" cy="213.50" r="3.30" fill="#2f7d22"/><circle cx="308.47" cy="217.50" r="3.30" fill="#2f7d22"/></g><g opacity="0.4"><ellipse cx="70.00" cy="305.00" rx="6.30" ry="5.40" fill="#2f7d22"/><circle cx="63.07" cy="298.50" r="2.70" fill="#2f7d22"/><circle cx="67.48" cy="294.50" r="2.70" fill="#2f7d22"/><circle cx="72.52" cy="294.50" r="2.70" fill="#2f7d22"/><circle cx="76.93" cy="298.50" r="2.70" fill="#2f7d22"/></g><g opacity="0.4"><ellipse cx="250.00" cy="365.00" rx="7.00" ry="6.00" fill="#2f7d22"/><circle cx="242.30" cy="358.00" r="3.00" fill="#2f7d22"/><circle cx="247.20" cy="354.00" r="3.00" fill="#2f7d22"/><circle cx="252.80" cy="354.00" r="3.00" fill="#2f7d22"/><circle cx="257.70" cy="358.00" r="3.00" fill="#2f7d22"/></g></g><g transform="translate(180.0 182.0) rotate(-8)"><path d="M -52,8 C -34,-34 34,-44 56,-14 C 49,-20 41,-21 36,-18 C 22,-30 -18,-24 -34,16 C -40,16 -47,13 -52,8 Z" fill="#ffd23f" stroke="#caa019" stroke-width="3" stroke-linejoin="round" stroke-linecap="round"/><circle cx="-50.00" cy="6.00" r="3.00" fill="#7a5a16"/><circle cx="54.00" cy="-12.00" r="3.00" fill="#7a5a16"/></g><text x="180.00" y="252.00" font-family="'Baloo 2','Comic Sans MS',sans-serif" font-size="78.00" font-weight="800" fill="#ffffff" text-anchor="middle" letter-spacing="2" stroke="#2f7d22" stroke-width="7" paint-order="stroke" stroke-linejoin="round">MICO</text><text x="180.00" y="292.00" font-family="'Baloo 2','Comic Sans MS',sans-serif" font-size="16.00" font-weight="700" fill="#ffffff" text-anchor="middle" letter-spacing="4" opacity="0.9">JOGO DO</text></svg>