<svg xmlns="http://www.w3.org/2000/svg" viewBox="0 0 360 504" width="360" height="504"><defs><pattern id="bgpaws" width="68" height="68" patternUnits="userSpaceOnUse"><g opacity="0.35"><g transform="translate(0,0) rotate(-12 24 24)"><ellipse cx="24.00" cy="27.50" rx="7.00" ry="5.60" fill="#3f8f2e"/><circle cx="15.95" cy="23.10" r="2.94" fill="#3f8f2e"/><circle cx="21.20" cy="17.60" r="2.94" fill="#3f8f2e"/><circle cx="26.80" cy="17.60" r="2.94" fill="#3f8f2e"/><circle cx="32.05" cy="23.10" r="2.94" fill="#3f8f2e"/></g><g transform="translate(34 34) scale(0.8) rotate(20 24 24)"><ellipse cx="24.00" cy="27.50" rx="7.00" ry="5.60" fill="#3f8f2e"/><circle cx="15.95" cy="23.10" r="2.94" fill="#3f8f2e"/><circle cx="21.20" cy="17.60" r="2.94" fill="#3f8f2e"/><circle cx="26.80" cy="17.60" r="2.94" fill="#3f8f2e"/><circle cx="32.05" cy="23.10" r="2.94" fill="#3f8f2e"/></g></g></pattern><linearGradient id="panel" x1="0" y1="0" x2="0" y2="1"><stop offset="0" stop-color="#9ed95b"/><stop offset="1" stop-color="#5fb135"/></linearGradient><filter id="cardshadow" x="-30%" y="-30%" width="160%" height="160%"><feDropShadow dx="0" dy="4" stdDeviation="6" flood-color="#000000" flood-opacity="0.25"/></filter></defs><g filter="url(#cardshadow)"><rect x="8.00" y="8.00" width="344.00" height="488.00" rx="26.00" ry="26.00" fill="#ffffff"/></g><rect x="24.00" y="24.00" width="312.00" height="456.00" rx="18.00" ry="18.00" fill="url(#panel)"/><rect x="24.00" y="24.00" width="312.00" height="456.00" rx="18.00" ry="18.00" fill="url(#bgpaws)"/><rect x="30.00" y="96.00" width="30.00" height="284.00" rx="15.00" ry="15.00" fill="#2f7d22" opacity="0.92"/><text x="45.00" y="238.00" font-family="'Baloo 2','Comic Sans MS',sans-serif" font-size="26.00" font-weight="800" fill="#ffffff" text-anchor="middle" letter-spacing="0.5" transform="rotate(-90 45.00 238.00)">Burro</text><circle cx="48.00" cy="48.00" r="25.00" fill="#ffffff"/><circle cx="48.00" cy="48.00" r="22.00" fill="#2f7d22"/><text x="48.00" y="57.24" font-family="'Baloo 2','Comic Sans MS',sans-serif" font-size="22.00" font-weight="800" fill="#ffffff" text-anchor="middle">18</text><g><circle cx="306.00" cy="54.00" r="10.00" fill="none" stroke="#3f7fd6" stroke-width="4" stroke-linejoin="round"/><line x1="313.07" y1="46.93" x2="320.14" y2="39.86" stroke="#3f7fd6" stroke-width="4" stroke-linecap="round"/><line x1="320.14" y1="39.86" x2="311.64" y2="39.86" stroke="#3f7fd6" stroke-width="4" stroke-linecap="round"/><line x1="320.14" y1="39.86" x2="320.14" y2="48.36" stroke="#3f7fd6" stroke-width="4" stroke-linecap="round"/></g><path d="M 242.0,376.0 C 314.0,372.0 316.0,292.0 272.0,302.0" fill="none" stroke="#9b9aa0" stroke-width="14" stroke-linejoin="round" stroke-linecap="round"/><path d="M 272.00,282.00 C 275.46,282.00 279.79,287.83 282.39,292.00 C 284.99,296.17 289.32,303.83 287.59,307.00 C 285.86,310.17 277.05,311.08 272.00,311.00 C 266.95,310.92 259.01,309.67 257.28,306.50 C 255.55,303.33 259.15,296.08 261.61,292.00 C 264.06,287.92 268.54,282.00 272.00,282.00 Z" fill="#6f6e75"/><ellipse cx="194.00" cy="332.00" rx="68.00" ry="92.00" fill="#9b9aa0" stroke="#4a3420" stroke-width="3" stroke-linejoin="round"/><ellipse cx="194.00" cy="346.00" rx="38.00" ry="64.00" fill="#dad9de"/><ellipse cx="156.00" cy="412.00" rx="23.00" ry="15.00" fill="#9b9aa0" stroke="#4a3420" stroke-width="3" stroke-linejoin="round"/><ellipse cx="137.00" cy="326.00" rx="15.00" ry="40.00" fill="#9b9aa0" stroke="#4a3420" stroke-width="3" stroke-linejoin="round" transform="rotate(-18 137.00 326.00)"/><ellipse cx="232.00" cy="412.00" rx="23.00" ry="15.00" fill="#9b9aa0" stroke="#4a3420" stroke-width="3" stroke-linejoin="round"/><ellipse cx="251.00" cy="326.00" rx="15.00" ry="40.00" fill="#9b9aa0" stroke="#4a3420" stroke-width="3" stroke-linejoin="round" transform="rotate(18 251.00 326.00)"/><ellipse cx="157.04" cy="135.68" rx="12.00" ry="34.00" fill="#9b9aa0" stroke="#4a3420" stroke-width="3" stroke-linejoin="round" transform="rotate(-12 157.04 135.68)"/><ellipse cx="157.04" cy="135.68" rx="6.00" ry="24.00" fill="#f4b8c6" transform="rotate(-12 157.04 135.68)"/><ellipse cx="230.96" cy="135.68" rx="12.00" ry="34.00" fill="#9b9aa0" stroke="#4a3420" stroke-width="3" stroke-linejoin="round" transform="rotate(12 230.96 135.68)"/><ellipse cx="230.96" cy="135.68" rx="6.00" ry="24.00" fill="#f4b8c6" transform="rotate(12 230.96 135.68)"/><circle cx="194.00" cy="182.00" r="56.00" fill="#9b9aa0" stroke="#4a3420" stroke-width="3" stroke-linejoin="round"/><circle cx="172.00" cy="180.00" r="14.00" fill="#ffffff" stroke="#4a3420" stroke-width="1.68" stroke-linejoin="round"/><circle cx="172.00" cy="180.00" r="10.08" fill="#3a2a22"/><circle cx="172.00" cy="180.00" r="6.44" fill="#241a16"/><circle cx="169.75" cy="177.10" r="3.22" fill="#ffffff" opacity="0.95"/><circle cx="216.00" cy="180.00" r="14.00" fill="#ffffff" stroke="#4a3420" stroke-width="1.68" stroke-linejoin="round"/><circle cx="216.00" cy="180.00" r="10.08" fill="#3a2a22"/><circle cx="216.00" cy="180.00" r="6.44" fill="#241a16"/><circle cx="213.75" cy="177.10" r="3.22" fill="#ffffff" opacity="0.95"/><line x1="162.00" y1="162.00" x2="182.00" y2="166.00" stroke="#4a3420" stroke-width="4" stroke-linecap="round"/><line x1="206.00" y1="166.00" x2="226.00" y2="162.00" stroke="#4a3420" stroke-width="4" stroke-linecap="round"/><ellipse cx="194.00" cy="211.68" rx="22.00" ry="26.00" fill="#9b9aa0" stroke="#4a3420" stroke-width="3" stroke-linejoin="round"/><ellipse cx="185.00" cy="217.68" rx="3.60" ry="6.00" fill="#4a3420"/><ellipse cx="203.00" cy="217.68" rx="3.60" ry="6.00" fill="#4a3420"/><g><polygon points="194.00,240.00 175.22,228.95 175.22,251.05" fill="#3f7fd6" stroke="#00000033" stroke-width="1" stroke-linejoin="round"/><polygon points="194.00,240.00 212.78,228.95 212.78,251.05" fill="#3f7fd6" stroke="#00000033" stroke-width="1" stroke-linejoin="round"/><circle cx="194.00" cy="240.00" r="5.52" fill="#3f7fd6" stroke="#00000033" stroke-width="1" stroke-linejoin="round"/></g><g><path d="M 173.0,132.0 A 21.0,21.0 0 0 1 215.0,132.0 Z" fill="#3f7fd6" stroke="#00000022" stroke-width="1" stroke-linejoin="round" stroke-linecap="round"/><ellipse cx="210.50" cy="132.00" rx="16.50" ry="6.00" fill="#3f7fd6"/><circle cx="194.00" cy="111.75" r="3.30" fill="#3f7fd6"/></g></svg>