<svg xmlns="http://www.w3.org/2000/svg" viewBox="0 0 360 504" width="360" height="504"><defs><pattern id="bgpaws" width="68" height="68" patternUnits="userSpaceOnUse"><g opacity="0.35"><g transform="translate(0,0) rotate(-12 24 24)"><ellipse cx="24.00" cy="27.50" rx="7.00" ry="5.60" fill="#3f8f2e"/><circle cx="15.95" cy="23.10" r="2.94" fill="#3f8f2e"/><circle cx="21.20" cy="17.60" r="2.94" fill="#3f8f2e"/><circle cx="26.80" cy="17.60" r="2.94" fill="#3f8f2e"/><circle cx="32.05" cy="23.10" r="2.94" fill="#3f8f2e"/></g><g transform="translate(34 34) scale(0.8) rotate(20 24 24)"><ellipse cx="24.00" cy="27.50" rx="7.00" ry="5.60" fill="#3f8f2e"/><circle cx="15.95" cy="23.10" r="2.94" fill="#3f8f2e"/><circle cx="21.20" cy="17.60" r="2.94" fill="#3f8f2e"/><circle cx="26.80" cy="17.60" r="2.94" fill="#3f8f2e"/><circle cx="32.05" cy="23.10" r="2.94" fill="#3f8f2e"/></g></g></pattern><linearGradient id="panel" x1="0" y1="0" x2="0" y2="1"><stop offset="0" stop-color="#9ed95b"/><stop offset="1" stop-color="#5fb135"/></linearGradient><filter id="cardshadow" x="-30%" y="-30%" width="160%" height="160%"><feDropShadow dx="0" dy="4" stdDeviation="6" flood-color="#000000" flood-opacity="0.25"/></filter></defs><g filter="url(#cardshadow)"><rect x="8.00" y="8.00" width="344.00" height="488.00" rx="26.00" ry="26.00" fill="#ffffff"/></g><rect x="24.00" y="24.00" width="312.00" height="456.00" rx="18.00" ry="18.00" fill="url(#panel)"/><rect x="24.00" y="24.00" width="312.00" height="456.00" rx="18.00" ry="18.00" fill="url(#bgpaws)"/><rect x="30.00" y="96.00" width="30.00" height="284.00" rx="15.00" ry="15.00" fill="#2f7d22" opacity="0.92"/><text x="45.00" y="238.00" font-family="'Baloo 2','Comic Sans MS',sans-serif" font-size="26.00" font-weight="800" fill="#ffffff" text-anchor="middle" letter-spacing="0.5" transform="rotate(-90 45.00 238.00)">Leoa</text><circle cx="48.00" cy="48.00" r="25.00" fill="#ffffff"/><circle cx="48.00" cy="48.00" r="22.00" fill="#2f7d22"/><text x="48.00" y="57.24" font-family="'Baloo 2','Comic Sans MS',sans-serif" font-size="27.00" font-weight="800" fill="#ffffff" text-anchor="middle">1</text><g><circle cx="306.00" cy="54.00" r="10.00" fill="none" stroke="#ff5fa0" stroke-width="4" stroke-linejoin="round"/><line x1="306.00" y1="64.00" x2="306.00" y2="79.00" stroke="#ff5fa0" stroke-width="4" stroke-linecap="round"/><line x1="299.00" y1="71.50" x2="313.00" y2="71.50" stroke="#ff5fa0" stroke-width="4" stroke-linecap="round"/></g><path d="M 242.0,376.0 C 314.0,372.0 316.0,292.0 272.0,302.0" fill="none" stroke="#e0a955" stroke-width="14" stroke-linejoin="round" stroke-linecap="round"/><path d="M 272.00,282.00 C 275.46,282.00 279.79,287.83 282.39,292.00 C 284.99,296.17 289.32,303.83 287.59,307.00 C 285.86,310.17 277.05,311.08 272.00,311.00 C 266.95,310.92 259.01,309.67 257.28,306.50 C 255.55,303.33 259.15,296.08 261.61,292.00 C 264.06,287.92 268.54,282.00 272.00,282.00 Z" fill="#c98a32"/><ellipse cx="194.00" cy="332.00" rx="68.00" ry="92.00" fill="#e0a955" stroke="#4a3420" stroke-width="3" stroke-linejoin="round"/><ellipse cx="194.00" cy="346.00" rx="38.00" ry="64.00" fill="#fff3df"/><ellipse cx="156.00" cy="412.00" rx="23.00" ry="15.00" fill="#e0a955" stroke="#4a3420" stroke-width="3" stroke-linejoin="round"/><ellipse cx="137.00" cy="326.00" rx="15.00" ry="40.00" fill="#e0a955" stroke="#4a3420" stroke-width="3" stroke-linejoin="round" transform="rotate(-18 137.00 326.00)"/><ellipse cx="232.00" cy="412.00" rx="23.00" ry="15.00" fill="#e0a955" stroke="#4a3420" stroke-width="3" stroke-linejoin="round"/><ellipse cx="251.00" cy="326.00" rx="15.00" ry="40.00" fill="#e0a955" stroke="#4a3420" stroke-width="3" stroke-linejoin="round" transform="rotate(18 251.00 326.00)"/><g><polygon points="152.00,368.00 236.00,368.00 273.80,412.00 114.20,412.00" fill="#ff5fa0" stroke="#00000022" stroke-width="1" stroke-linejoin="round"/><polygon points="114.20,412.00 114.20,412.00 146.12,418.00 178.04,412.00 209.96,418.00 241.88,412.00 273.80,418.00 273.80,412.00" fill="#ff5fa0"/></g><circle cx="158.36" cy="149.12" r="20.00" fill="#e0a955" stroke="#4a3420" stroke-width="3" stroke-linejoin="round"/><circle cx="158.36" cy="149.12" r="11.00" fill="#f4b8c6"/><circle cx="229.64" cy="149.12" r="20.00" fill="#e0a955" stroke="#4a3420" stroke-width="3" stroke-linejoin="round"/><circle cx="229.64" cy="149.12" r="11.00" fill="#f4b8c6"/><circle cx="194.00" cy="182.00" r="54.00" fill="#e0a955" stroke="#4a3420" stroke-width="3" stroke-linejoin="round"/><circle cx="172.00" cy="180.00" r="14.00" fill="#ffffff" stroke="#4a3420" stroke-width="1.68" stroke-linejoin="round"/><circle cx="172.00" cy="180.00" r="10.08" fill="#caa12f"/><circle cx="172.00" cy="180.00" r="6.44" fill="#241a16"/><circle cx="169.75" cy="177.10" r="3.22" fill="#ffffff" opacity="0.95"/><line x1="172.93" y1="166.73" x2="173.46" y2="159.05" stroke="#4a3420" stroke-width="2.24" stroke-linecap="round"/><line x1="178.65" y1="168.48" x2="182.50" y2="161.81" stroke="#4a3420" stroke-width="2.24" stroke-linecap="round"/><line x1="183.03" y1="172.56" x2="189.41" y2="168.26" stroke="#4a3420" stroke-width="2.24" stroke-linecap="round"/><circle cx="216.00" cy="180.00" r="14.00" fill="#ffffff" stroke="#4a3420" stroke-width="1.68" stroke-linejoin="round"/><circle cx="216.00" cy="180.00" r="10.08" fill="#caa12f"/><circle cx="216.00" cy="180.00" r="6.44" fill="#241a16"/><circle cx="213.75" cy="177.10" r="3.22" fill="#ffffff" opacity="0.95"/><line x1="216.93" y1="166.73" x2="217.46" y2="159.05" stroke="#4a3420" stroke-width="2.24" stroke-linecap="round"/><line x1="222.65" y1="168.48" x2="226.50" y2="161.81" stroke="#4a3420" stroke-width="2.24" stroke-linecap="round"/><line x1="227.03" y1="172.56" x2="233.41" y2="168.26" stroke="#4a3420" stroke-width="2.24" stroke-linecap="round"/><polygon points="187.00,197.12 201.00,197.12 194.00,206.12" fill="#d76b86"/><path d="M 194.0,206.12 Q 184.0,216.12 176.0,210.12 M 194.0,206.12 Q 204.0,216.12 212.0,210.12" fill="none" stroke="#4a3420" stroke-width="3" stroke-linejoin="round" stroke-linecap="round"/><line x1="182.00" y1="202.12" x2="144.00" y2="188.12" stroke="#4a3420" stroke-width="1.6" stroke-linecap="round"/><line x1="182.00" y1="204.12" x2="144.00" y2="196.12" stroke="#4a3420" stroke-width="1.6" stroke-linecap="round"/><line x1="182.00" y1="206.12" x2="144.00" y2="204.12" stroke="#4a3420" stroke-width="1.6" stroke-linecap="round"/><line x1="206.00" y1="202.12" x2="244.00" y2="188.12" stroke="#4a3420" stroke-width="1.6" stroke-linecap="round"/><line x1="206.00" y1="204.12" x2="244.00" y2="196.12" stroke="#4a3420" stroke-width="1.6" stroke-linecap="round"/><line x1="206.00" y1="206.12" x2="244.00" y2="204.12" stroke="#4a3420" stroke-width="1.6" stroke-linecap="round"/><path d="M 185.00,215.12 Q 189.50,208.82 194.00,214.04 Q 198.50,208.82 203.00,215.12 Q 194.00,222.32 185.00,215.12 Z" fill="#e23c6b"/><g><ellipse cx="148.36" cy="130.70" rx="8.00" ry="11.00" fill="#ff5fa0" transform="rotate(-25 148.36 130.70)"/><ellipse cx="168.36" cy="130.70" rx="8.00" ry="11.00" fill="#ff5fa0" transform="rotate(25 168.36 130.70)"/><circle cx="158.36" cy="130.70" r="4.50" fill="#ff5fa0"/></g><g><circle cx="138.00" cy="196.00" r="6.00" fill="none" stroke="#ffd23f" stroke-width="2.0999999999999996" stroke-linejoin="round"/><circle cx="138.00" cy="202.00" r="1.68" fill="#ffd23f"/></g><g><circle cx="250.00" cy="196.00" r="6.00" fill="none" stroke="#ffd23f" stroke-width="2.0999999999999996" stroke-linejoin="round"/><circle cx="250.00" cy="202.00" r="1.68" fill="#ffd23f"/></g></svg>