<svg xmlns="http://www.w3.org/2000/svg" viewBox="0 0 360 504" width="360" height="504"><defs><pattern id="bgpaws" width="68" height="68" patternUnits="userSpaceOnUse"><g opacity="0.35"><g transform="translate(0,0) rotate(-12 24 24)"><ellipse cx="24.00" cy="27.50" rx="7.00" ry="5.60" fill="#3f8f2e"/><circle cx="15.95" cy="23.10" r="2.94" fill="#3f8f2e"/><circle cx="21.20" cy="17.60" r="2.94" fill="#3f8f2e"/><circle cx="26.80" cy="17.60" r="2.94" fill="#3f8f2e"/><circle cx="32.05" cy="23.10" r="2.94" fill="#3f8f2e"/></g><g transform="translate(34 34) scale(0.8) rotate(20 24 24)"><ellipse cx="24.00" cy="27.50" rx="7.00" ry="5.60" fill="#3f8f2e"/><circle cx="15.95" cy="23.10" r="2.94" fill="#3f8f2e"/><circle cx="21.20" cy="17.60" r="2.94" fill="#3f8f2e"/><circle cx="26.80" cy="17.60" r="2.94" fill="#3f8f2e"/><circle cx="32.05" cy="23.10" r="2.94" fill="#3f8f2e"/></g></g></pattern><linearGradient id="panel" x1="0" y1="0" x2="0" y2="1"><stop offset="0" stop-color="#9ed95b"/><stop offset="1" stop-color="#5fb135"/></linearGradient><filter id="cardshadow" x="-30%" y="-30%" width="160%" height="160%"><feDropShadow dx="0" dy="4" stdDeviation="6" flood-color="#000000" flood-opacity="0.25"/></filter></defs><g filter="url(#cardshadow)"><rect x="8.00" y="8.00" width="344.00" height="488.00" rx="26.00" ry="26.00" fill="#ffffff"/></g><rect x="24.00" y="24.00" width="312.00" height="456.00" rx="18.00" ry="18.00" fill="url(#panel)"/><rect x="24.00" y="24.00" width="312.00" height="456.00" rx="18.00" ry="18.00" fill="url(#bgpaws)"/><rect x="30.00" y="96.00" width="30.00" height="284.00" rx="15.00" ry="15.00" fill="#2f7d22" opacity="0.92"/><text x="45.00" y="238.00" font-family="'Baloo 2','Comic Sans MS',sans-serif" font-size="26.00" font-weight="800" fill="#ffffff" text-anchor="middle" letter-spacing="0.5" transform="rotate(-90 45.00 238.00)">Leão</text><circle cx="48.00" cy="48.00" r="25.00" fill="#ffffff"/><circle cx="48.00" cy="48.00" r="22.00" fill="#2f7d22"/><text x="48.00" y="57.24" font-family="'Baloo 2','Comic Sans MS',sans-serif" font-size="27.00" font-weight="800" fill="#ffffff" text-anchor="middle">1</text><g><circle cx="306.00" cy="54.00" r="10.00" fill="none" stroke="#3f7fd6" stroke-width="4" stroke-linejoin="round"/><line x1="313.07" y1="46.93" x2="320.14" y2="39.86" stroke="#3f7fd6" stroke-width="4" stroke-linecap="round"/><line x1="320.14" y1="39.86" x2="311.64" y2="39.86" stroke="#3f7fd6" stroke-width="4" stroke-linecap="round"/><line x1="320.14" y1="39.86" x2="320.14" y2="48.36" stroke="#3f7fd6" stroke-width="4" stroke-linecap="round"/></g><path d="M 242.0,376.0 C 314.0,372.0 316.0,292.0 272.0,302.0" fill="none" stroke="#e0a955" stroke-width="14" stroke-linejoin="round" stroke-linecap="round"/><path d="M 272.00,282.00 C 275.46,282.00 279.79,287.83 282.39,292.00 C 284.99,296.17 289.32,303.83 287.59,307.00 C 285.86,310.17 277.05,311.08 272.00,311.00 C 266.95,310.92 259.01,309.67 257.28,306.50 C 255.55,303.33 259.15,296.08 261.61,292.00 C 264.06,287.92 268.54,282.00 272.00,282.00 Z" fill="#c98a32"/><g><path d="M 274.00,182.00 C 274.00,184.83 264.50,191.00 260.00,191.00 C 255.50,191.00 247.00,184.83 247.00,182.00 C 247.00,179.17 255.50,174.00 260.00,174.00 C 264.50,174.00 274.00,179.17 274.00,182.00 Z" fill="#b9772e"/><path d="M 267.91,212.61 C 266.83,215.23 255.69,217.29 251.53,215.57 C 247.37,213.85 241.88,204.90 242.97,202.28 C 244.05,199.66 253.88,198.14 258.04,199.87 C 262.19,201.59 268.99,210.00 267.91,212.61 Z" fill="#b9772e"/><path d="M 250.57,238.57 C 248.57,240.57 237.49,238.21 234.31,235.03 C 231.12,231.85 229.47,221.48 231.48,219.48 C 233.48,217.47 243.14,219.83 246.33,223.01 C 249.51,226.19 252.57,236.57 250.57,238.57 Z" fill="#b9772e"/><path d="M 224.61,255.91 C 222.00,256.99 212.66,250.58 210.94,246.42 C 209.22,242.26 211.66,232.05 214.28,230.97 C 216.90,229.88 224.93,235.76 226.65,239.91 C 228.37,244.07 227.23,254.83 224.61,255.91 Z" fill="#b9772e"/><path d="M 194.00,262.00 C 191.17,262.00 185.00,252.50 185.00,248.00 C 185.00,243.50 191.17,235.00 194.00,235.00 C 196.83,235.00 202.00,243.50 202.00,248.00 C 202.00,252.50 196.83,262.00 194.00,262.00 Z" fill="#b9772e"/><path d="M 163.39,255.91 C 160.77,254.83 158.71,243.69 160.43,239.53 C 162.15,235.37 171.10,229.88 173.72,230.97 C 176.34,232.05 177.86,241.88 176.13,246.04 C 174.41,250.19 166.00,256.99 163.39,255.91 Z" fill="#b9772e"/><path d="M 137.43,238.57 C 135.43,236.57 137.79,225.49 140.97,222.31 C 144.15,219.12 154.52,217.47 156.52,219.48 C 158.53,221.48 156.17,231.14 152.99,234.33 C 149.81,237.51 139.43,240.57 137.43,238.57 Z" fill="#b9772e"/><path d="M 120.09,212.61 C 119.01,210.00 125.42,200.66 129.58,198.94 C 133.74,197.22 143.95,199.66 145.03,202.28 C 146.12,204.90 140.24,212.93 136.09,214.65 C 131.93,216.37 121.17,215.23 120.09,212.61 Z" fill="#b9772e"/><path d="M 114.00,182.00 C 114.00,179.17 123.50,173.00 128.00,173.00 C 132.50,173.00 141.00,179.17 141.00,182.00 C 141.00,184.83 132.50,190.00 128.00,190.00 C 123.50,190.00 114.00,184.83 114.00,182.00 Z" fill="#b9772e"/><path d="M 120.09,151.39 C 121.17,148.77 132.31,146.71 136.47,148.43 C 140.63,150.15 146.12,159.10 145.03,161.72 C 143.95,164.34 134.12,165.86 129.96,164.13 C 125.81,162.41 119.01,154.00 120.09,151.39 Z" fill="#b9772e"/><path d="M 137.43,125.43 C 139.43,123.43 150.51,125.79 153.69,128.97 C 156.88,132.15 158.53,142.52 156.52,144.52 C 154.52,146.53 144.86,144.17 141.67,140.99 C 138.49,137.81 135.43,127.43 137.43,125.43 Z" fill="#b9772e"/><path d="M 163.39,108.09 C 166.00,107.01 175.34,113.42 177.06,117.58 C 178.78,121.74 176.34,131.95 173.72,133.03 C 171.10,134.12 163.07,128.24 161.35,124.09 C 159.63,119.93 160.77,109.17 163.39,108.09 Z" fill="#b9772e"/><path d="M 194.00,102.00 C 196.83,102.00 203.00,111.50 203.00,116.00 C 203.00,120.50 196.83,129.00 194.00,129.00 C 191.17,129.00 186.00,120.50 186.00,116.00 C 186.00,111.50 191.17,102.00 194.00,102.00 Z" fill="#b9772e"/><path d="M 224.61,108.09 C 227.23,109.17 229.29,120.31 227.57,124.47 C 225.85,128.63 216.90,134.12 214.28,133.03 C 211.66,131.95 210.14,122.12 211.87,117.96 C 213.59,113.81 222.00,107.01 224.61,108.09 Z" fill="#b9772e"/><path d="M 250.57,125.43 C 252.57,127.43 250.21,138.51 247.03,141.69 C 243.85,144.88 233.48,146.53 231.48,144.52 C 229.47,142.52 231.83,132.86 235.01,129.67 C 238.19,126.49 248.57,123.43 250.57,125.43 Z" fill="#b9772e"/><path d="M 267.91,151.39 C 268.99,154.00 262.58,163.34 258.42,165.06 C 254.26,166.78 244.05,164.34 242.97,161.72 C 241.88,159.10 247.76,151.07 251.91,149.35 C 256.07,147.63 266.83,148.77 267.91,151.39 Z" fill="#b9772e"/></g><ellipse cx="194.00" cy="332.00" rx="68.00" ry="92.00" fill="#e0a955" stroke="#4a3420" stroke-width="3" stroke-linejoin="round"/><ellipse cx="194.00" cy="346.00" rx="38.00" ry="64.00" fill="#fff3df"/><ellipse cx="156.00" cy="412.00" rx="23.00" ry="15.00" fill="#e0a955" stroke="#4a3420" stroke-width="3" stroke-linejoin="round"/><ellipse cx="137.00" cy="326.00" rx="15.00" ry="40.00" fill="#e0a955" stroke="#4a3420" stroke-width="3" stroke-linejoin="round" transform="rotate(-18 137.00 326.00)"/><ellipse cx="232.00" cy="412.00" rx="23.00" ry="15.00" fill="#e0a955" stroke="#4a3420" stroke-width="3" stroke-linejoin="round"/><ellipse cx="251.00" cy="326.00" rx="15.00" ry="40.00" fill="#e0a955" stroke="#4a3420" stroke-width="3" stroke-linejoin="round" transform="rotate(18 251.00 326.00)"/><circle cx="158.36" cy="149.12" r="20.00" fill="#e0a955" stroke="#4a3420" stroke-width="3" stroke-linejoin="round"/><circle cx="158.36" cy="149.12" r="11.00" fill="#f4b8c6"/><circle cx="229.64" cy="149.12" r="20.00" fill="#e0a955" stroke="#4a3420" stroke-width="3" stroke-linejoin="round"/><circle cx="229.64" cy="149.12" r="11.00" fill="#f4b8c6"/><circle cx="194.00" cy="182.00" r="54.00" fill="#e0a955" stroke="#4a3420" stroke-width="3" stroke-linejoin="round"/><circle cx="172.00" cy="180.00" r="14.00" fill="#ffffff" stroke="#4a3420" stroke-width="1.68" stroke-linejoin="round"/><circle cx="172.00" cy="180.00" r="10.08" fill="#caa12f"/><circle cx="172.00" cy="180.00" r="6.44" fill="#241a16"/><circle cx="169.75" cy="177.10" r="3.22" fill="#ffffff" opacity="0.95"/><circle cx="216.00" cy="180.00" r="14.00" fill="#ffffff" stroke="#4a3420" stroke-width="1.68" stroke-linejoin="round"/><circle cx="216.00" cy="180.00" r="10.08" fill="#caa12f"/><circle cx="216.00" cy="180.00" r="6.44" fill="#241a16"/><circle cx="213.75" cy="177.10" r="3.22" fill="#ffffff" opacity="0.95"/><line x1="162.00" y1="162.00" x2="182.00" y2="166.00" stroke="#4a3420" stroke-width="4" stroke-linecap="round"/><line x1="206.00" y1="166.00" x2="226.00" y2="162.00" stroke="#4a3420" stroke-width="4" stroke-linecap="round"/><polygon points="187.00,197.12 201.00,197.12 194.00,206.12" fill="#d76b86"/><path d="M 194.0,206.12 Q 184.0,216.12 176.0,210.12 M 194.0,206.12 Q 204.0,216.12 212.0,210.12" fill="none" stroke="#4a3420" stroke-width="3" stroke-linejoin="round" stroke-linecap="round"/><line x1="182.00" y1="202.12" x2="144.00" y2="188.12" stroke="#4a3420" stroke-width="1.6" stroke-linecap="round"/><line x1="182.00" y1="204.12" x2="144.00" y2="196.12" stroke="#4a3420" stroke-width="1.6" stroke-linecap="round"/><line x1="182.00" y1="206.12" x2="144.00" y2="204.12" stroke="#4a3420" stroke-width="1.6" stroke-linecap="round"/><line x1="206.00" y1="202.12" x2="244.00" y2="188.12" stroke="#4a3420" stroke-width="1.6" stroke-linecap="round"/><line x1="206.00" y1="204.12" x2="244.00" y2="196.12" stroke="#4a3420" stroke-width="1.6" stroke-linecap="round"/><line x1="206.00" y1="206.12" x2="244.00" y2="204.12" stroke="#4a3420" stroke-width="1.6" stroke-linecap="round"/><g><polygon points="194.00,238.00 175.22,226.95 175.22,249.05" fill="#3f7fd6" stroke="#00000033" stroke-width="1" stroke-linejoin="round"/><polygon points="194.00,238.00 212.78,226.95 212.78,249.05" fill="#3f7fd6" stroke="#00000033" stroke-width="1" stroke-linejoin="round"/><circle cx="194.00" cy="238.00" r="5.52" fill="#3f7fd6" stroke="#00000033" stroke-width="1" stroke-linejoin="round"/></g><g><path d="M 173.0,134.0 A 21.0,21.0 0 0 1 215.0,134.0 Z" fill="#3f7fd6" stroke="#00000022" stroke-width="1" stroke-linejoin="round" stroke-linecap="round"/><ellipse cx="210.50" cy="134.00" rx="16.50" ry="6.00" fill="#3f7fd6"/><circle cx="194.00" cy="113.75" r="3.30" fill="#3f7fd6"/></g></svg>