<svg xmlns="http://www.w3.org/2000/svg" viewBox="0 0 360 504" width="360" height="504"><defs><pattern id="bgpaws" width="68" height="68" patternUnits="userSpaceOnUse"><g opacity="0.32"><g transform="translate(0,0) rotate(-12 24 24)"><ellipse cx="24.00" cy="27.50" rx="7.00" ry="5.60" fill="#e07d1c"/><circle cx="15.95" cy="23.10" r="2.94" fill="#e07d1c"/><circle cx="21.20" cy="17.60" r="2.94" fill="#e07d1c"/><circle cx="26.80" cy="17.60" r="2.94" fill="#e07d1c"/><circle cx="32.05" cy="23.10" r="2.94" fill="#e07d1c"/></g><g transform="translate(34 34) scale(0.8) rotate(20 24 24)"><ellipse cx="24.00" cy="27.50" rx="7.00" ry="5.60" fill="#e07d1c"/><circle cx="15.95" cy="23.10" r="2.94" fill="#e07d1c"/><circle cx="21.20" cy="17.60" r="2.94" fill="#e07d1c"/><circle cx="26.80" cy="17.60" r="2.94" fill="#e07d1c"/><circle cx="32.05" cy="23.10" r="2.94" fill="#e07d1c"/></g></g></pattern><linearGradient id="panel" x1="0" y1="0" x2="0" y2="1"><stop offset="0" stop-color="#ffd86b"/><stop offset="1" stop-color="#f3a72e"/></linearGradient><filter id="cardshadow" x="-30%" y="-30%" width="160%" height="160%"><feDropShadow dx="0" dy="4" stdDeviation="6" flood-color="#000000" flood-opacity="0.25"/></filter></defs><g filter="url(#cardshadow)"><rect x="8.00" y="8.00" width="344.00" height="488.00" rx="26.00" ry="26.00" fill="#ffffff"/></g><rect x="24.00" y="24.00" width="312.00" height="456.00" rx="18.00" ry="18.00" fill="url(#panel)"/><rect x="24.00" y="24.00" width="312.00" height="456.00" rx="18.00" ry="18.00" fill="url(#bgpaws)"/><rect x="30.00" y="96.00" width="30.00" height="284.00" rx="15.00" ry="15.00" fill="#d9731a" opacity="0.92"/><text x="45.00" y="238.00" font-family="'Baloo 2','Comic Sans MS',sans-serif" font-size="26.00" font-weight="800" fill="#ffffff" text-anchor="middle" letter-spacing="0.5" transform="rotate(-90 45.00 238.00)">Mico</text><circle cx="48.00" cy="48.00" r="25.00" fill="#ffffff"/><circle cx="48.00" cy="48.00" r="22.00" fill="#d9731a"/><text x="48.00" y="57.24" font-family="'Baloo 2','Comic Sans MS',sans-serif" font-size="27.00" font-weight="800" fill="#ffffff" text-anchor="middle">0</text><path d="M 144.0,348.0 C 44.0,378.0 54.0,248.0 134.0,278.0 C 174.0,294.0 164.0,324.0 140.0,318.0" fill="none" stroke="#c8772e" stroke-width="18" stroke-linejoin="round" stroke-linecap="round"/><ellipse cx="194.00" cy="318.00" rx="60.00" ry="84.00" fill="#c8772e" stroke="#5a3a1a" stroke-width="3" stroke-linejoin="round"/><ellipse cx="194.00" cy="328.00" rx="36.00" ry="58.00" fill="#f6dcbf"/><ellipse cx="134.00" cy="300.00" rx="14.00" ry="44.00" fill="#c8772e" stroke="#5a3a1a" stroke-width="3" stroke-linejoin="round" transform="rotate(-40 134.00 300.00)"/><circle cx="112.00" cy="274.00" r="12.00" fill="#f1c79a"/><ellipse cx="166.00" cy="396.00" rx="16.00" ry="30.00" fill="#c8772e" stroke="#5a3a1a" stroke-width="3" stroke-linejoin="round"/><ellipse cx="254.00" cy="300.00" rx="14.00" ry="44.00" fill="#c8772e" stroke="#5a3a1a" stroke-width="3" stroke-linejoin="round" transform="rotate(40 254.00 300.00)"/><circle cx="276.00" cy="274.00" r="12.00" fill="#f1c79a"/><ellipse cx="222.00" cy="396.00" rx="16.00" ry="30.00" fill="#c8772e" stroke="#5a3a1a" stroke-width="3" stroke-linejoin="round"/><circle cx="142.00" cy="178.00" r="20.00" fill="#c8772e" stroke="#5a3a1a" stroke-width="3" stroke-linejoin="round"/><circle cx="142.00" cy="178.00" r="11.00" fill="#f1c79a"/><circle cx="246.00" cy="178.00" r="20.00" fill="#c8772e" stroke="#5a3a1a" stroke-width="3" stroke-linejoin="round"/><circle cx="246.00" cy="178.00" r="11.00" fill="#f1c79a"/><circle cx="194.00" cy="178.00" r="54.00" fill="#c8772e" stroke="#5a3a1a" stroke-width="3" stroke-linejoin="round"/><ellipse cx="194.00" cy="186.00" rx="40.00" ry="42.00" fill="#f1c79a"/><circle cx="176.00" cy="176.00" r="13.00" fill="#ffffff" stroke="#5a3a1a" stroke-width="1.56" stroke-linejoin="round"/><circle cx="176.00" cy="176.00" r="9.36" fill="#7a4a1f"/><circle cx="176.00" cy="176.00" r="5.98" fill="#241a16"/><circle cx="173.91" cy="173.31" r="2.99" fill="#ffffff" opacity="0.95"/><circle cx="212.00" cy="176.00" r="13.00" fill="#ffffff" stroke="#5a3a1a" stroke-width="1.56" stroke-linejoin="round"/><circle cx="212.00" cy="176.00" r="9.36" fill="#7a4a1f"/><circle cx="212.00" cy="176.00" r="5.98" fill="#241a16"/><circle cx="209.91" cy="173.31" r="2.99" fill="#ffffff" opacity="0.95"/><ellipse cx="194.00" cy="200.00" rx="16.00" ry="12.00" fill="#e7b489"/><circle cx="189.00" cy="198.00" r="2.40" fill="#5a3a1a"/><circle cx="199.00" cy="198.00" r="2.40" fill="#5a3a1a"/><path d="M 182.0,206.0 Q 194.0,216.0 206.0,206.0" fill="none" stroke="#5a3a1a" stroke-width="3" stroke-linejoin="round" stroke-linecap="round"/></svg>