<svg xmlns="http://www.w3.org/2000/svg" viewBox="0 0 360 504" width="360" height="504"><defs><pattern id="bgpaws" width="68" height="68" patternUnits="userSpaceOnUse"><g opacity="0.35"><g transform="translate(0,0) rotate(-12 24 24)"><ellipse cx="24.00" cy="27.50" rx="7.00" ry="5.60" fill="#3f8f2e"/><circle cx="15.95" cy="23.10" r="2.94" fill="#3f8f2e"/><circle cx="21.20" cy="17.60" r="2.94" fill="#3f8f2e"/><circle cx="26.80" cy="17.60" r="2.94" fill="#3f8f2e"/><circle cx="32.05" cy="23.10" r="2.94" fill="#3f8f2e"/></g><g transform="translate(34 34) scale(0.8) rotate(20 24 24)"><ellipse cx="24.00" cy="27.50" rx="7.00" ry="5.60" fill="#3f8f2e"/><circle cx="15.95" cy="23.10" r="2.94" fill="#3f8f2e"/><circle cx="21.20" cy="17.60" r="2.94" fill="#3f8f2e"/><circle cx="26.80" cy="17.60" r="2.94" fill="#3f8f2e"/><circle cx="32.05" cy="23.10" r="2.94" fill="#3f8f2e"/></g></g></pattern><linearGradient id="panel" x1="0" y1="0" x2="0" y2="1"><stop offset="0" stop-color="#9ed95b"/><stop offset="1" stop-color="#5fb135"/></linearGradient><filter id="cardshadow" x="-30%" y="-30%" width="160%" height="160%"><feDropShadow dx="0" dy="4" stdDeviation="6" flood-color="#000000" flood-opacity="0.25"/></filter></defs><g filter="url(#cardshadow)"><rect x="8.00" y="8.00" width="344.00" height="488.00" rx="26.00" ry="26.00" fill="#ffffff"/></g><rect x="24.00" y="24.00" width="312.00" height="456.00" rx="18.00" ry="18.00" fill="url(#panel)"/><rect x="24.00" y="24.00" width="312.00" height="456.00" rx="18.00" ry="18.00" fill="url(#bgpaws)"/><rect x="30.00" y="96.00" width="30.00" height="284.00" rx="15.00" ry="15.00" fill="#2f7d22" opacity="0.92"/><text x="45.00" y="238.00" font-family="'Baloo 2','Comic Sans MS',sans-serif" font-size="26.00" font-weight="800" fill="#ffffff" text-anchor="middle" letter-spacing="0.5" transform="rotate(-90 45.00 238.00)">Perua</text><circle cx="48.00" cy="48.00" r="25.00" fill="#ffffff"/><circle cx="48.00" cy="48.00" r="22.00" fill="#2f7d22"/><text x="48.00" y="57.24" font-family="'Baloo 2','Comic Sans MS',sans-serif" font-size="22.00" font-weight="800" fill="#ffffff" text-anchor="middle">21</text><g><circle cx="306.00" cy="54.00" r="10.00" fill="none" stroke="#ff5fa0" stroke-width="4" stroke-linejoin="round"/><line x1="306.00" y1="64.00" x2="306.00" y2="79.00" stroke="#ff5fa0" stroke-width="4" stroke-linecap="round"/><line x1="299.00" y1="71.50" x2="313.00" y2="71.50" stroke="#ff5fa0" stroke-width="4" stroke-linecap="round"/></g><path d="M 94.08,311.20 C 91.96,307.80 109.77,287.24 121.64,279.82 C 133.51,272.40 163.19,263.29 165.31,266.68 C 167.43,270.08 146.23,292.76 134.36,300.18 C 122.49,307.60 96.20,314.59 94.08,311.20 Z" fill="#6b5a4a"/><path d="M 89.55,301.03 C 88.45,297.18 111.23,282.32 124.69,278.46 C 138.15,274.61 169.19,274.03 170.30,277.87 C 171.40,281.72 144.77,297.68 131.31,301.54 C 117.85,305.39 90.65,304.87 89.55,301.03 Z" fill="#473b30"/><path d="M 88.00,290.00 C 88.00,286.00 114.00,278.00 128.00,278.00 C 142.00,278.00 172.00,286.00 172.00,290.00 C 172.00,294.00 142.00,302.00 128.00,302.00 C 114.00,302.00 88.00,294.00 88.00,290.00 Z" fill="#6b5a4a"/><path d="M 89.55,278.97 C 90.65,275.13 117.85,274.61 131.31,278.46 C 144.77,282.32 171.40,298.28 170.30,302.13 C 169.19,305.97 138.15,305.39 124.69,301.54 C 111.23,297.68 88.45,282.82 89.55,278.97 Z" fill="#473b30"/><path d="M 94.08,268.80 C 96.20,265.41 122.49,272.40 134.36,279.82 C 146.23,287.24 167.43,309.92 165.31,313.32 C 163.19,316.71 133.51,307.60 121.64,300.18 C 109.77,292.76 91.96,272.20 94.08,268.80 Z" fill="#6b5a4a"/><ellipse cx="194.00" cy="296.00" rx="58.00" ry="74.00" fill="#6b5a4a" stroke="#4a3420" stroke-width="3" stroke-linejoin="round"/><ellipse cx="194.00" cy="306.00" rx="34.00" ry="52.00" fill="#9c8a76"/><ellipse cx="164.00" cy="296.00" rx="22.00" ry="40.00" fill="#473b30" stroke="#4a3420" stroke-width="2.5" stroke-linejoin="round" transform="rotate(12 164.00 296.00)"/><line x1="178.00" y1="362.00" x2="178.00" y2="388.00" stroke="#e0a020" stroke-width="5" stroke-linecap="round"/><line x1="178.00" y1="388.00" x2="168.00" y2="388.00" stroke="#e0a020" stroke-width="4" stroke-linecap="round"/><line x1="210.00" y1="362.00" x2="210.00" y2="388.00" stroke="#e0a020" stroke-width="5" stroke-linecap="round"/><line x1="210.00" y1="388.00" x2="220.00" y2="388.00" stroke="#e0a020" stroke-width="4" stroke-linecap="round"/><ellipse cx="194.00" cy="250.00" rx="22.00" ry="40.00" fill="#6b5a4a"/><circle cx="194.00" cy="204.00" r="40.00" fill="#6b5a4a" stroke="#4a3420" stroke-width="3" stroke-linejoin="round"/><g><path d="M 182.00,150.00 C 184.33,150.00 189.00,156.50 189.00,160.00 C 189.00,163.50 184.33,171.00 182.00,171.00 C 179.67,171.00 175.00,163.50 175.00,160.00 C 175.00,156.50 179.67,150.00 182.00,150.00 Z" fill="#d4584e"/><path d="M 194.00,150.00 C 196.33,150.00 201.00,156.50 201.00,160.00 C 201.00,163.50 196.33,171.00 194.00,171.00 C 191.67,171.00 187.00,163.50 187.00,160.00 C 187.00,156.50 191.67,150.00 194.00,150.00 Z" fill="#d4584e"/><path d="M 206.00,150.00 C 208.33,150.00 213.00,156.50 213.00,160.00 C 213.00,163.50 208.33,171.00 206.00,171.00 C 203.67,171.00 199.00,163.50 199.00,160.00 C 199.00,156.50 203.67,150.00 206.00,150.00 Z" fill="#d4584e"/><path d="M 194.00,218.00 C 196.00,218.00 200.00,223.17 200.00,226.00 C 200.00,228.83 196.00,235.00 194.00,235.00 C 192.00,235.00 188.00,228.83 188.00,226.00 C 188.00,223.17 192.00,218.00 194.00,218.00 Z" fill="#d4584e"/></g><polygon points="230.00,202.00 256.00,208.00 230.00,216.00" fill="#e0a020" stroke="#4a3420" stroke-width="2" stroke-linejoin="round"/><circle cx="202.00" cy="200.00" r="12.00" fill="#ffffff" stroke="#4a3420" stroke-width="1.5" stroke-linejoin="round"/><circle cx="202.00" cy="200.00" r="8.64" fill="#3a2a22"/><circle cx="202.00" cy="200.00" r="5.52" fill="#241a16"/><circle cx="200.07" cy="197.52" r="2.76" fill="#ffffff" opacity="0.95"/><line x1="202.80" y1="188.63" x2="203.26" y2="182.04" stroke="#4a3420" stroke-width="1.92" stroke-linecap="round"/><line x1="207.70" y1="190.13" x2="211.00" y2="184.41" stroke="#4a3420" stroke-width="1.92" stroke-linecap="round"/><line x1="211.45" y1="193.63" x2="216.92" y2="189.93" stroke="#4a3420" stroke-width="1.92" stroke-linecap="round"/><g><ellipse cx="175.00" cy="160.00" rx="7.20" ry="9.90" fill="#ff5fa0" transform="rotate(-25 175.00 160.00)"/><ellipse cx="193.00" cy="160.00" rx="7.20" ry="9.90" fill="#ff5fa0" transform="rotate(25 193.00 160.00)"/><circle cx="184.00" cy="160.00" r="4.05" fill="#ff5fa0"/></g><g><circle cx="188.00" cy="238.00" r="5.00" fill="none" stroke="#ffd23f" stroke-width="2" stroke-linejoin="round"/><circle cx="188.00" cy="243.00" r="1.40" fill="#ffd23f"/></g></svg>