<svg xmlns="http://www.w3.org/2000/svg" viewBox="0 0 360 504" width="360" height="504"><defs><pattern id="bgpaws" width="68" height="68" patternUnits="userSpaceOnUse"><g opacity="0.35"><g transform="translate(0,0) rotate(-12 24 24)"><ellipse cx="24.00" cy="27.50" rx="7.00" ry="5.60" fill="#3f8f2e"/><circle cx="15.95" cy="23.10" r="2.94" fill="#3f8f2e"/><circle cx="21.20" cy="17.60" r="2.94" fill="#3f8f2e"/><circle cx="26.80" cy="17.60" r="2.94" fill="#3f8f2e"/><circle cx="32.05" cy="23.10" r="2.94" fill="#3f8f2e"/></g><g transform="translate(34 34) scale(0.8) rotate(20 24 24)"><ellipse cx="24.00" cy="27.50" rx="7.00" ry="5.60" fill="#3f8f2e"/><circle cx="15.95" cy="23.10" r="2.94" fill="#3f8f2e"/><circle cx="21.20" cy="17.60" r="2.94" fill="#3f8f2e"/><circle cx="26.80" cy="17.60" r="2.94" fill="#3f8f2e"/><circle cx="32.05" cy="23.10" r="2.94" fill="#3f8f2e"/></g></g></pattern><linearGradient id="panel" x1="0" y1="0" x2="0" y2="1"><stop offset="0" stop-color="#9ed95b"/><stop offset="1" stop-color="#5fb135"/></linearGradient><filter id="cardshadow" x="-30%" y="-30%" width="160%" height="160%"><feDropShadow dx="0" dy="4" stdDeviation="6" flood-color="#000000" flood-opacity="0.25"/></filter></defs><g filter="url(#cardshadow)"><rect x="8.00" y="8.00" width="344.00" height="488.00" rx="26.00" ry="26.00" fill="#ffffff"/></g><rect x="24.00" y="24.00" width="312.00" height="456.00" rx="18.00" ry="18.00" fill="url(#panel)"/><rect x="24.00" y="24.00" width="312.00" height="456.00" rx="18.00" ry="18.00" fill="url(#bgpaws)"/><rect x="30.00" y="96.00" width="30.00" height="284.00" rx="15.00" ry="15.00" fill="#2f7d22" opacity="0.92"/><text x="45.00" y="238.00" font-family="'Baloo 2','Comic Sans MS',sans-serif" font-size="26.00" font-weight="800" fill="#ffffff" text-anchor="middle" letter-spacing="0.5" transform="rotate(-90 45.00 238.00)">Tigre</text><circle cx="48.00" cy="48.00" r="25.00" fill="#ffffff"/><circle cx="48.00" cy="48.00" r="22.00" fill="#2f7d22"/><text x="48.00" y="57.24" font-family="'Baloo 2','Comic Sans MS',sans-serif" font-size="27.00" font-weight="800" fill="#ffffff" text-anchor="middle">2</text><g><circle cx="306.00" cy="54.00" r="10.00" fill="none" stroke="#3f7fd6" stroke-width="4" stroke-linejoin="round"/><line x1="313.07" y1="46.93" x2="320.14" y2="39.86" stroke="#3f7fd6" stroke-width="4" stroke-linecap="round"/><line x1="320.14" y1="39.86" x2="311.64" y2="39.86" stroke="#3f7fd6" stroke-width="4" stroke-linecap="round"/><line x1="320.14" y1="39.86" x2="320.14" y2="48.36" stroke="#3f7fd6" stroke-width="4" stroke-linecap="round"/></g><path d="M 246.0,372.0 C 334.0,362.0 322.0,236.0 258.0,254.0" fill="none" stroke="#f0922e" stroke-width="24" stroke-linejoin="round" stroke-linecap="round"/><circle cx="260.00" cy="254.00" r="12.00" fill="#3a2a22"/><ellipse cx="194.00" cy="332.00" rx="68.00" ry="92.00" fill="#f0922e" stroke="#4a3420" stroke-width="3" stroke-linejoin="round"/><ellipse cx="194.00" cy="346.00" rx="38.00" ry="64.00" fill="#fff3df"/><ellipse cx="156.00" cy="412.00" rx="23.00" ry="15.00" fill="#f0922e" stroke="#4a3420" stroke-width="3" stroke-linejoin="round"/><ellipse cx="137.00" cy="326.00" rx="15.00" ry="40.00" fill="#f0922e" stroke="#4a3420" stroke-width="3" stroke-linejoin="round" transform="rotate(-18 137.00 326.00)"/><ellipse cx="232.00" cy="412.00" rx="23.00" ry="15.00" fill="#f0922e" stroke="#4a3420" stroke-width="3" stroke-linejoin="round"/><ellipse cx="251.00" cy="326.00" rx="15.00" ry="40.00" fill="#f0922e" stroke="#4a3420" stroke-width="3" stroke-linejoin="round" transform="rotate(18 251.00 326.00)"/><circle cx="157.04" cy="147.68" r="20.00" fill="#f0922e" stroke="#4a3420" stroke-width="3" stroke-linejoin="round"/><circle cx="157.04" cy="147.68" r="11.00" fill="#f4b8c6"/><circle cx="230.96" cy="147.68" r="20.00" fill="#f0922e" stroke="#4a3420" stroke-width="3" stroke-linejoin="round"/><circle cx="230.96" cy="147.68" r="11.00" fill="#f4b8c6"/><circle cx="194.00" cy="182.00" r="56.00" fill="#f0922e" stroke="#4a3420" stroke-width="3" stroke-linejoin="round"/><ellipse cx="170.00" cy="200.00" rx="22.00" ry="18.00" fill="#fff3df"/><ellipse cx="218.00" cy="200.00" rx="22.00" ry="18.00" fill="#fff3df"/><line x1="182.00" y1="154.00" x2="186.00" y2="193.20" stroke="#3a2a22" stroke-width="5" stroke-linecap="round"/><line x1="170.00" y1="154.00" x2="174.00" y2="193.20" stroke="#3a2a22" stroke-width="5" stroke-linecap="round"/><line x1="158.00" y1="154.00" x2="162.00" y2="193.20" stroke="#3a2a22" stroke-width="5" stroke-linecap="round"/><line x1="206.00" y1="154.00" x2="202.00" y2="193.20" stroke="#3a2a22" stroke-width="5" stroke-linecap="round"/><line x1="218.00" y1="154.00" x2="214.00" y2="193.20" stroke="#3a2a22" stroke-width="5" stroke-linecap="round"/><line x1="230.00" y1="154.00" x2="226.00" y2="193.20" stroke="#3a2a22" stroke-width="5" stroke-linecap="round"/><circle cx="172.00" cy="180.00" r="14.00" fill="#ffffff" stroke="#4a3420" stroke-width="1.68" stroke-linejoin="round"/><circle cx="172.00" cy="180.00" r="10.08" fill="#6cae3e"/><circle cx="172.00" cy="180.00" r="6.44" fill="#241a16"/><circle cx="169.75" cy="177.10" r="3.22" fill="#ffffff" opacity="0.95"/><circle cx="216.00" cy="180.00" r="14.00" fill="#ffffff" stroke="#4a3420" stroke-width="1.68" stroke-linejoin="round"/><circle cx="216.00" cy="180.00" r="10.08" fill="#6cae3e"/><circle cx="216.00" cy="180.00" r="6.44" fill="#241a16"/><circle cx="213.75" cy="177.10" r="3.22" fill="#ffffff" opacity="0.95"/><line x1="162.00" y1="162.00" x2="182.00" y2="166.00" stroke="#4a3420" stroke-width="4" stroke-linecap="round"/><line x1="206.00" y1="166.00" x2="226.00" y2="162.00" stroke="#4a3420" stroke-width="4" stroke-linecap="round"/><polygon points="187.00,197.68 201.00,197.68 194.00,206.68" fill="#d76b86"/><path d="M 194.0,206.68 Q 184.0,216.68 176.0,210.68 M 194.0,206.68 Q 204.0,216.68 212.0,210.68" fill="none" stroke="#4a3420" stroke-width="3" stroke-linejoin="round" stroke-linecap="round"/><line x1="182.00" y1="202.68" x2="144.00" y2="188.68" stroke="#4a3420" stroke-width="1.6" stroke-linecap="round"/><line x1="182.00" y1="204.68" x2="144.00" y2="196.68" stroke="#4a3420" stroke-width="1.6" stroke-linecap="round"/><line x1="182.00" y1="206.68" x2="144.00" y2="204.68" stroke="#4a3420" stroke-width="1.6" stroke-linecap="round"/><line x1="206.00" y1="202.68" x2="244.00" y2="188.68" stroke="#4a3420" stroke-width="1.6" stroke-linecap="round"/><line x1="206.00" y1="204.68" x2="244.00" y2="196.68" stroke="#4a3420" stroke-width="1.6" stroke-linecap="round"/><line x1="206.00" y1="206.68" x2="244.00" y2="204.68" stroke="#4a3420" stroke-width="1.6" stroke-linecap="round"/><g><polygon points="194.00,240.00 175.22,228.95 175.22,251.05" fill="#3f7fd6" stroke="#00000033" stroke-width="1" stroke-linejoin="round"/><polygon points="194.00,240.00 212.78,228.95 212.78,251.05" fill="#3f7fd6" stroke="#00000033" stroke-width="1" stroke-linejoin="round"/><circle cx="194.00" cy="240.00" r="5.52" fill="#3f7fd6" stroke="#00000033" stroke-width="1" stroke-linejoin="round"/></g><g><path d="M 173.0,132.0 A 21.0,21.0 0 0 1 215.0,132.0 Z" fill="#3f7fd6" stroke="#00000022" stroke-width="1" stroke-linejoin="round" stroke-linecap="round"/><ellipse cx="210.50" cy="132.00" rx="16.50" ry="6.00" fill="#3f7fd6"/><circle cx="194.00" cy="111.75" r="3.30" fill="#3f7fd6"/></g></svg>